<?xml version="1.0" standalone="no"?>
<!DOCTYPE svg PUBLIC "-//W3C//DTD SVG 20010904//EN"
 "http://www.w3.org/TR/2001/REC-SVG-20010904/DTD/svg10.dtd">
<svg version="1.0" xmlns="http://www.w3.org/2000/svg"
 width="1282.000000pt" height="1282.000000pt" viewBox="0 0 1282.000000 1282.000000"
 preserveAspectRatio="xMidYMid meet">
<metadata>
Created by potrace 1.11, written by Peter Selinger 2001-2013
</metadata>
<g transform="translate(0.000000,1282.000000) scale(0.100000,-0.100000)"
fill="#000000" stroke="none">
<path d="M5698 12814 c-2 -2 -106 -5 -231 -8 -125 -3 -230 -7 -234 -9 -5 -3
-24 -8 -43 -11 -146 -23 -441 -103 -625 -168 -182 -65 -227 -85 -293 -131 -60
-42 -251 -203 -347 -291 -33 -31 -130 -101 -216 -156 -195 -125 -524 -354
-558 -389 -103 -105 -208 -258 -299 -431 -38 -74 -86 -163 -105 -196 -32 -58
-61 -128 -135 -334 -47 -131 -60 -184 -82 -335 -11 -77 -24 -165 -29 -195 -10
-58 -7 -374 4 -450 21 -140 67 -299 155 -530 69 -183 85 -217 208 -440 46 -85
114 -216 149 -290 102 -212 200 -406 228 -450 14 -22 25 -42 25 -45 0 -3 17
-29 38 -58 20 -29 43 -64 51 -77 129 -224 219 -363 276 -429 182 -208 196
-228 305 -431 161 -300 199 -380 254 -537 30 -88 73 -197 94 -244 214 -462
258 -609 287 -954 3 -38 8 -92 10 -120 3 -27 7 -79 10 -115 7 -101 16 -193 20
-210 7 -25 16 -178 20 -330 5 -175 14 -301 25 -355 5 -22 12 -67 16 -100 8
-76 30 -133 55 -140 20 -7 25 -19 38 -105 12 -72 7 -178 -15 -342 -3 -20 -22
-135 -44 -254 -31 -170 -43 -220 -57 -228 -46 -25 -104 -119 -173 -281 -61
-143 -83 -316 -56 -442 31 -150 67 -182 172 -159 28 6 30 5 28 -21 -1 -15 -5
-71 -9 -123 -3 -52 -13 -129 -22 -170 -8 -41 -16 -82 -18 -91 -2 -9 -6 -40
-10 -70 -4 -30 -8 -55 -9 -57 -2 -1 -38 -11 -82 -23 -115 -30 -173 -57 -189
-90 -11 -21 -15 -72 -15 -216 -1 -254 10 -328 56 -382 22 -26 61 -43 104 -45
15 -1 151 19 180 25 17 4 17 -3 6 -173 -5 -81 -3 -115 7 -140 37 -87 93 -95
392 -52 58 8 540 13 576 5 l31 -6 3 -105 c3 -119 16 -158 67 -207 153 -145
472 -135 710 23 87 58 142 121 186 212 l34 72 242 -1 c211 -2 317 3 391 17 11
2 47 7 80 10 94 9 143 22 185 49 82 52 157 151 174 230 28 130 29 166 26 580
-1 182 2 251 10 253 25 9 82 67 100 101 48 95 59 214 44 471 -6 104 -23 152
-65 183 -29 21 -110 29 -166 16 -21 -4 -39 -6 -41 -4 -2 2 10 70 27 152 38
187 45 240 44 330 -1 69 0 73 21 73 101 0 217 89 248 190 18 59 28 119 43 250
4 30 13 97 21 148 15 93 13 115 -9 160 -33 69 -144 71 -301 7 -15 -7 -17 -4
-13 11 37 121 41 408 7 450 -7 7 -13 36 -15 64 -1 28 -9 58 -17 68 -16 18 -10
41 130 472 57 175 164 398 265 552 41 62 93 151 115 198 73 152 240 439 284
488 56 64 110 138 159 220 29 48 79 119 111 157 32 39 73 95 90 125 17 30 59
91 93 135 34 44 81 109 105 145 24 36 66 94 95 130 29 36 69 100 89 143 35 72
170 302 214 365 11 15 40 61 64 102 24 41 73 113 109 160 68 90 89 132 149
300 68 188 87 234 123 296 20 33 48 96 62 140 15 43 57 151 95 239 98 232 126
312 145 425 11 67 55 242 79 313 32 98 42 148 61 297 7 54 15 150 21 250 15
250 11 330 -22 475 -31 136 -196 661 -228 725 -17 36 -65 112 -106 169 -84
118 -331 378 -424 447 -34 25 -99 81 -146 124 -47 44 -115 101 -153 127 -37
27 -105 74 -150 106 -387 275 -692 444 -891 493 -118 29 -225 53 -268 59 -24
3 -101 17 -173 30 -71 13 -154 27 -184 30 -30 4 -61 8 -70 10 -9 1 -45 6 -81
10 -61 6 -150 19 -195 28 -33 7 -118 19 -225 31 -73 9 -119 16 -225 36 -100
18 -229 25 -685 36 -124 3 -262 7 -307 8 -45 2 -84 2 -85 0z m517 -108 c354
-6 466 -10 515 -21 62 -14 191 -35 250 -40 36 -3 76 -7 90 -10 14 -2 45 -7 70
-10 49 -6 83 -12 108 -19 9 -3 42 -7 72 -11 30 -3 71 -8 90 -10 19 -2 58 -7
85 -10 48 -6 209 -30 250 -39 11 -2 63 -11 115 -20 145 -25 147 -25 280 -58
68 -16 147 -39 174 -50 83 -32 236 -111 318 -164 43 -27 144 -91 225 -143 82
-52 182 -119 223 -150 41 -31 102 -73 135 -94 33 -22 94 -73 136 -114 42 -41
95 -87 117 -102 41 -27 207 -185 313 -297 64 -69 167 -211 214 -298 19 -34 52
-124 75 -201 23 -77 59 -194 80 -260 43 -135 87 -294 98 -358 13 -75 4 -411
-14 -562 -16 -131 -40 -245 -75 -354 -21 -69 -51 -183 -65 -255 -24 -122 -64
-251 -104 -341 -26 -57 -132 -310 -160 -379 -12 -32 -38 -83 -56 -114 -19 -31
-43 -81 -55 -111 -11 -30 -31 -79 -45 -108 -13 -29 -33 -80 -44 -113 -37 -109
-67 -164 -149 -274 -45 -59 -89 -122 -98 -140 -8 -17 -33 -56 -53 -86 -72
-105 -188 -295 -223 -365 -19 -38 -58 -99 -87 -135 -29 -36 -76 -101 -105
-146 -29 -44 -76 -110 -105 -145 -28 -35 -64 -89 -80 -120 -16 -31 -53 -85
-83 -120 -30 -35 -77 -102 -105 -149 -51 -86 -91 -142 -167 -238 -22 -27 -58
-83 -80 -123 -22 -41 -60 -112 -86 -159 -25 -47 -59 -108 -76 -135 -16 -28
-43 -80 -59 -115 -16 -36 -55 -100 -86 -142 -143 -192 -262 -445 -353 -743
-47 -156 -114 -354 -130 -384 -17 -35 -20 -72 -4 -88 14 -14 -341 -7 -531 11
-30 3 -84 9 -120 12 -36 4 -71 7 -77 7 -7 0 -13 5 -13 11 -2 71 2 598 5 681 4
114 14 258 20 310 2 17 7 57 10 90 7 70 12 105 25 195 6 36 12 81 15 100 2 19
15 100 29 180 13 80 27 168 30 195 16 128 25 204 30 245 3 25 10 83 15 130 10
88 20 186 26 255 2 22 6 65 10 95 3 30 8 75 10 100 11 117 18 167 40 320 14
91 27 174 29 185 2 11 7 43 10 70 4 28 11 75 16 105 10 55 23 149 35 245 4 28
18 102 31 165 14 63 26 129 28 145 2 17 7 47 11 68 l7 38 49 -49 c83 -85 184
-122 399 -147 74 -9 151 -18 170 -22 48 -8 138 -7 183 1 46 9 217 80 269 113
21 13 56 30 78 39 51 21 124 117 146 194 9 30 28 93 42 140 22 72 26 105 27
215 0 149 -12 203 -72 304 -74 125 -301 308 -422 339 -154 38 -194 43 -266 32
-38 -5 -91 -12 -116 -14 -46 -4 -47 -4 -68 37 -31 62 -81 184 -81 196 0 16
-68 149 -93 183 -20 27 -20 30 -5 62 9 19 20 51 24 72 7 41 33 94 46 94 4 0
37 -26 73 -58 36 -32 100 -79 143 -103 42 -24 91 -58 107 -75 17 -17 62 -48
100 -68 39 -20 82 -46 98 -58 25 -21 88 -30 102 -16 43 42 -59 137 -274 257
-59 33 -139 85 -177 115 -198 158 -296 228 -364 260 -104 49 -219 122 -306
195 -104 86 -138 95 -157 38 -8 -23 138 -184 191 -211 20 -10 65 -36 99 -58
34 -22 95 -52 136 -67 41 -16 89 -38 106 -51 l32 -22 -36 -66 c-20 -37 -43
-74 -51 -82 -14 -14 -114 -48 -164 -55 -14 -2 -41 -6 -60 -9 -19 -2 -188 -5
-375 -6 l-340 -2 -125 32 c-69 18 -150 45 -180 60 -71 35 -139 59 -183 62 -34
2 -34 3 -29 40 3 25 -1 46 -12 62 -20 32 -20 31 7 33 65 5 246 38 269 50 51
25 45 96 -8 109 -34 9 -180 9 -224 1 -19 -3 -100 -15 -180 -27 -222 -31 -250
-43 -234 -105 8 -32 39 -48 145 -75 46 -11 94 -25 107 -30 29 -12 28 -44 -1
-67 -22 -17 -92 -109 -170 -223 -69 -101 -56 -94 -125 -71 -53 18 -79 20 -228
16 -93 -2 -187 -7 -209 -10 -63 -10 -263 -93 -335 -139 -36 -23 -87 -52 -113
-65 -56 -28 -91 -67 -119 -131 -11 -25 -32 -70 -46 -100 -53 -116 -75 -263
-53 -360 5 -25 12 -56 15 -70 2 -14 9 -45 15 -70 5 -25 12 -56 14 -70 16 -88
50 -170 89 -216 113 -132 189 -192 308 -245 82 -36 303 -93 344 -88 26 3 32
-3 34 -33 1 -18 11 -68 22 -110 13 -50 22 -128 26 -215 3 -76 7 -151 8 -168 2
-16 7 -61 11 -100 4 -38 9 -78 10 -87 2 -9 7 -48 10 -85 4 -37 8 -75 10 -83 8
-31 23 -377 30 -710 6 -295 7 -306 45 -570 29 -201 29 -198 45 -505 15 -300
17 -346 30 -805 4 -103 12 -227 19 -278 l12 -92 -55 -1 c-104 -2 -154 -7 -316
-30 -56 -8 -176 -12 -240 -7 -5 0 -16 -1 -24 -3 -26 -7 -32 47 -46 434 -4 87
-8 166 -10 175 -1 9 -6 46 -10 82 -4 36 -9 73 -10 82 -2 10 -6 60 -10 110 -3
51 -7 109 -10 128 -2 19 -7 71 -10 115 -3 44 -8 91 -10 105 -2 14 -6 52 -10
85 -10 92 -53 275 -84 362 -31 85 -113 281 -193 462 -28 63 -67 162 -88 220
-60 172 -98 254 -167 368 -36 59 -86 146 -111 193 -95 179 -133 236 -245 363
-64 73 -189 238 -208 275 -26 50 -146 246 -213 346 -36 55 -121 208 -188 340
-66 133 -171 329 -232 436 -60 107 -127 233 -147 280 -86 202 -172 468 -193
600 -25 155 -30 366 -12 485 9 60 37 251 42 285 6 46 109 347 145 429 16 35
46 91 67 125 21 34 62 106 92 161 79 149 216 350 286 418 58 58 348 257 607
417 49 30 132 96 185 145 108 101 240 212 318 269 80 56 364 156 648 225 278
69 276 69 540 76 110 3 201 7 203 9 2 1 31 1 66 0 34 -2 224 -5 422 -8z m-303
-3236 c49 -124 109 -268 133 -320 24 -52 54 -126 65 -165 12 -38 35 -106 52
-150 63 -164 88 -230 88 -233 0 -2 -19 -1 -41 2 -23 3 -83 9 -133 12 -50 4
-92 8 -94 9 -2 1 -4 78 -6 171 -3 180 -14 236 -61 337 -33 69 -178 241 -239
284 -25 18 -46 36 -46 41 0 11 50 89 113 175 30 41 56 67 65 65 10 -2 48 -85
104 -228z m168 191 c37 -18 213 -72 282 -87 32 -7 187 -15 278 -16 88 0 258 0
388 -1 50 -1 92 -2 92 -3 0 -1 -28 -20 -62 -43 -61 -40 -273 -248 -392 -385
-50 -58 -61 -66 -71 -53 -8 12 -40 17 -136 22 -147 8 -129 8 -156 6 -47 -2
-50 -81 -3 -81 44 0 48 -8 32 -53 -8 -23 -15 -73 -15 -111 l0 -69 -35 69 c-19
38 -53 114 -74 169 -22 55 -55 129 -74 164 -34 61 -112 234 -175 386 -16 39
-33 77 -38 86 -6 9 -7 20 -3 24 13 13 118 -2 162 -24z m1274 -303 c25 -51 48
-106 51 -122 6 -41 27 -58 68 -58 26 0 36 -5 40 -18 4 -15 -9 -24 -68 -48 -77
-32 -283 -171 -344 -234 -45 -45 -89 -123 -106 -187 -32 -124 33 -494 103
-573 16 -19 14 -42 -13 -138 -8 -30 -18 -68 -21 -85 -2 -16 -9 -43 -14 -60
-12 -40 -37 -168 -45 -230 -3 -27 -12 -88 -20 -135 -8 -47 -17 -103 -20 -125
-4 -22 -8 -47 -10 -55 -2 -8 -7 -35 -10 -60 -3 -25 -8 -52 -10 -60 -4 -14 -37
-227 -50 -320 -3 -25 -8 -56 -10 -70 -3 -14 -7 -50 -10 -80 -3 -30 -8 -66 -10
-80 -2 -14 -16 -117 -30 -230 -14 -113 -27 -221 -30 -240 -19 -141 -22 -163
-30 -235 -4 -33 -16 -114 -26 -180 -24 -144 -29 -172 -34 -206 -3 -15 -7 -47
-10 -70 -3 -24 -7 -55 -10 -69 -6 -32 -13 -94 -32 -290 -5 -41 -7 -279 -5
-528 l2 -454 -27 6 c-16 4 -82 8 -148 11 -66 2 -129 6 -140 8 -123 25 -176 31
-270 31 -98 0 -356 -10 -458 -19 -43 -3 -47 0 -53 57 -2 24 -6 57 -9 73 -6 37
-13 200 -20 510 -10 391 -31 774 -50 887 -2 13 -9 59 -15 103 -6 44 -13 91
-15 105 -2 14 -6 45 -10 70 -3 25 -8 56 -10 70 -8 49 -15 136 -20 255 -10 234
-15 342 -20 485 -9 224 -15 319 -26 390 -16 102 -17 112 -24 170 -4 30 -9 64
-11 75 -3 11 -7 92 -10 180 -3 88 -10 184 -15 214 -11 66 -12 191 -1 192 33 3
74 12 115 24 26 8 47 12 47 10 0 -13 127 56 206 111 154 107 241 217 276 349
l13 48 120 -6 c66 -4 131 -9 145 -12 14 -3 40 -8 58 -11 l33 -6 -6 -87 c-4
-47 -2 -105 3 -128 l10 -43 -37 0 c-55 0 -79 -10 -85 -33 -12 -48 23 -56 192
-44 151 11 192 29 177 77 -9 27 -33 32 -93 19 -29 -6 -56 -8 -59 -6 -10 11
-23 86 -28 167 -6 98 -17 75 127 271 263 357 469 567 666 677 42 24 86 52 97
63 11 10 22 19 26 19 4 0 27 -42 53 -92z m-2001 -46 l28 -7 -60 -88 c-33 -48
-80 -124 -104 -170 -24 -45 -54 -98 -66 -117 -21 -35 -21 -35 -21 -8 0 15 7
58 15 97 8 39 17 83 20 98 2 16 9 51 15 78 6 28 13 67 16 87 5 27 12 38 28 40
27 5 94 0 129 -10z m-203 5 c0 -2 -14 -69 -30 -148 -17 -79 -34 -166 -37 -194
-11 -94 -17 -90 -57 37 -21 68 -49 157 -63 198 -13 41 -27 83 -30 93 -5 15 5
17 106 17 61 0 111 -2 111 -3z m-311 -54 c7 -16 28 -80 46 -143 18 -63 43
-137 54 -163 29 -68 26 -71 -9 -9 -31 57 -107 155 -184 237 l-47 49 53 28 c67
34 72 34 87 1z m724 -27 c41 -17 117 -72 117 -85 0 -11 -98 -76 -155 -103 -27
-13 -99 -56 -159 -96 -95 -64 -106 -69 -84 -40 112 149 140 190 164 238 41 84
66 123 73 112 3 -5 23 -17 44 -26z m-692 -299 c26 -40 59 -87 74 -105 l28 -33
-24 5 c-112 23 -143 32 -209 61 -43 19 -110 38 -157 45 -98 15 -98 16 -56 123
20 52 39 79 75 112 l49 44 87 -90 c48 -50 108 -123 133 -162z m877 91 c31 -64
44 -111 46 -161 1 -20 -4 -27 -19 -28 -11 0 -27 -2 -35 -3 -8 -2 -40 -7 -70
-11 -30 -4 -64 -9 -75 -11 -29 -5 -184 -15 -300 -18 -78 -3 -96 -1 -82 8 10 6
53 34 95 61 138 91 375 223 403 225 3 0 20 -28 37 -62z m2093 -32 c-5 -11 -6
-57 -4 -101 l4 -80 -51 94 c-29 51 -48 97 -43 101 10 10 61 17 85 12 13 -3 15
-9 9 -26z m154 3 c28 -6 65 -18 83 -26 l33 -14 -36 -37 c-20 -20 -63 -75 -96
-122 -32 -47 -68 -96 -79 -110 l-21 -25 6 90 c4 50 8 113 9 140 5 86 16 126
35 121 9 -3 39 -10 66 -17z m-1448 2 c2 -1 -12 -21 -31 -45 -19 -25 -54 -79
-77 -121 -34 -59 -45 -72 -51 -58 -11 30 -9 122 5 156 7 18 12 42 11 55 -1 23
0 23 70 19 39 -3 72 -6 73 -6z m1133 -136 c81 -155 96 -209 39 -149 -13 14
-39 35 -59 46 -76 46 -221 150 -216 155 12 12 171 61 178 54 3 -3 30 -51 58
-106z m600 10 c7 -8 11 -17 9 -19 -2 -3 -39 -20 -82 -40 -44 -20 -109 -56
-147 -81 -37 -25 -71 -45 -75 -45 -11 0 53 78 134 162 l73 77 37 -19 c21 -10
43 -26 51 -35z m-895 -5 c3 -5 74 -52 158 -105 165 -103 252 -171 207 -162
-14 3 -101 21 -195 41 -93 19 -185 39 -203 45 -18 5 -56 13 -85 16 -28 4 -54
8 -56 10 -12 12 52 95 98 127 58 40 66 44 76 28z m-2780 -25 c27 -3 79 -19
115 -35 36 -15 76 -30 90 -33 14 -3 -2 -3 -35 -1 -33 2 -105 7 -160 10 -55 3
-106 7 -112 9 -7 3 -13 18 -13 35 0 28 2 30 33 25 17 -2 54 -7 82 -10z m1189
-111 c-3 -83 1 -77 -51 -71 -27 4 -84 13 -128 22 -132 24 -152 27 -280 41 -33
3 -62 8 -64 10 -2 2 43 4 100 5 114 1 180 5 231 13 18 3 62 9 98 12 36 4 67 8
69 10 14 13 26 -8 25 -42z m2614 -153 c5 -80 4 -84 -14 -77 -75 31 -135 46
-197 51 -40 3 -83 7 -97 10 -14 3 -40 8 -58 11 -33 6 -32 8 70 61 56 30 130
63 163 75 33 11 67 24 75 29 24 14 52 -61 58 -160z m-3579 125 c81 -15 114
-26 77 -26 -10 0 -85 -22 -166 -50 -81 -27 -157 -50 -168 -50 -16 0 -25 13
-41 55 -38 100 -40 99 97 92 64 -4 155 -13 201 -21z m476 -66 c28 -5 68 -12
90 -15 38 -5 180 -30 312 -55 l61 -12 -15 -51 c-24 -83 -56 -130 -119 -171
-46 -31 -61 -36 -78 -28 -34 16 -183 159 -249 241 -34 42 -71 84 -82 93 -23
19 -28 20 80 -2z m-315 4 c0 -4 -19 -26 -42 -49 -52 -50 -126 -133 -192 -214
-28 -34 -54 -61 -58 -61 -9 0 -68 89 -68 102 0 5 -10 29 -21 53 -12 25 -20 47
-18 49 9 8 221 80 299 102 95 26 100 27 100 18z m48 -96 c-56 -175 -91 -273
-109 -309 l-18 -37 -71 36 c-38 20 -70 39 -70 42 0 12 280 352 296 359 1 1
-11 -41 -28 -91z m2332 59 c41 -9 125 -23 185 -32 61 -10 116 -20 123 -24 13
-7 -109 -72 -231 -122 -37 -16 -80 -37 -95 -47 -41 -29 -104 -60 -132 -63 -22
-4 -25 0 -26 26 -1 17 -5 72 -9 122 -4 51 -4 109 0 129 l6 36 52 -5 c29 -3 86
-12 127 -20z m-2120 -94 c65 -83 218 -243 232 -243 4 0 8 -4 8 -9 0 -14 -96
-48 -155 -55 -27 -4 -57 -9 -66 -12 -13 -4 -18 6 -23 48 -4 29 -17 105 -30
168 -32 154 -36 180 -32 180 2 0 32 -35 66 -77z m-116 -103 c9 -47 18 -110 21
-140 3 -30 8 -65 10 -76 7 -31 -13 -35 -104 -22 l-79 12 17 40 c10 23 37 108
62 189 49 165 44 165 73 -3z m2917 106 c30 -9 83 -19 119 -22 72 -6 185 -36
214 -57 17 -12 17 -19 7 -68 -17 -78 -53 -148 -106 -199 -39 -38 -47 -42 -59
-30 -15 17 -266 388 -266 395 0 5 27 0 91 -19z m-281 -10 c0 -17 -149 -241
-187 -281 -25 -27 -135 -155 -140 -163 -7 -14 -213 148 -213 168 0 4 21 15 48
25 26 10 70 33 97 50 28 17 91 52 140 77 50 25 124 66 165 91 83 51 90 53 90
33z m204 -118 c47 -73 196 -317 196 -323 0 -5 -142 -57 -203 -75 -64 -18 -72
-17 -67 5 1 5 1 104 1 220 0 189 4 255 15 255 2 0 28 -37 58 -82z m-139 -55
c-10 -201 -17 -270 -36 -345 -9 -35 -11 -37 -52 -36 -65 0 -176 28 -215 54 -8
5 25 52 85 121 63 72 213 287 213 305 0 4 2 8 5 8 3 0 3 -48 0 -107z m-2065
-4434 c0 -5 -4 -9 -8 -9 -5 0 -9 7 -9 15 0 8 4 12 9 9 4 -3 8 -9 8 -15z m335
-38 c3 -5 2 -12 -3 -15 -5 -3 -9 1 -9 9 0 17 3 19 12 6z m1205 -145 c0 -2 -8
-10 -17 -17 -16 -13 -17 -12 -4 4 13 16 21 21 21 13z m-2265 -64 c-3 -3 -11 0
-18 7 -9 10 -8 11 6 5 10 -3 15 -9 12 -12z m885 -36 c0 -2 -8 -10 -17 -17 -16
-13 -17 -12 -4 4 13 16 21 21 21 13z m-489 -223 c13 -16 12 -17 -3 -4 -10 7
-18 15 -18 17 0 8 8 3 21 -13z m-461 -69 c0 -8 -19 -13 -24 -6 -3 5 1 9 9 9 8
0 15 -2 15 -3z m-14 -219 c-1 -8 -5 -17 -8 -21 -5 -4 -4 16 1 34 3 9 9 -1 7
-13z m1500 -40 c-1 -8 -5 -17 -8 -21 -5 -4 -4 16 1 34 3 9 9 -1 7 -13z m682
-170 c-3 -3 -9 2 -12 12 -6 14 -5 15 5 6 7 -7 10 -15 7 -18z m-978 5 c0 -5 -5
-10 -11 -10 -5 0 -7 5 -4 10 3 6 8 10 11 10 2 0 4 -4 4 -10z m235 0 c3 -5 1
-10 -4 -10 -6 0 -11 5 -11 10 0 6 2 10 4 10 3 0 8 -4 11 -10z m370 1 c-9 -8
-36 -10 -30 -2 2 4 11 8 20 8 8 0 13 -3 10 -6z m465 -315 c0 -2 -8 -10 -17
-17 -16 -13 -17 -12 -4 4 13 16 21 21 21 13z m-250 -150 c0 -2 -8 -10 -17 -17
-16 -13 -17 -12 -4 4 13 16 21 21 21 13z m-2336 -114 c2 -4 -4 -8 -14 -8 -10
0 -16 4 -14 8 3 4 9 8 14 8 5 0 11 -4 14 -8z m947 -129 c13 -16 12 -17 -3 -4
-10 7 -18 15 -18 17 0 8 8 3 21 -13z m964 -1 c-3 -3 -11 0 -18 7 -9 10 -8 11
6 5 10 -3 15 -9 12 -12z m-795 -268 c0 -8 -19 -13 -24 -6 -3 5 1 9 9 9 8 0 15
-2 15 -3z m251 -471 c13 -16 12 -17 -3 -4 -10 7 -18 15 -18 17 0 8 8 3 21 -13z
m234 7 c-3 -5 -12 -10 -18 -10 -7 0 -6 4 3 10 19 12 23 12 15 0z m-1069 -166
c1 -9 0 -13 -4 -10 -3 4 -7 14 -8 22 -1 9 0 13 4 10 3 -4 7 -14 8 -22z m2348
-112 c3 -5 -1 -9 -9 -9 -8 0 -12 4 -9 9 3 4 7 8 9 8 2 0 6 -4 9 -8z m-2464
-26 c0 -2 -8 -10 -17 -17 -16 -13 -17 -12 -4 4 13 16 21 21 21 13z m1661 -33
c13 -16 12 -17 -3 -4 -10 7 -18 15 -18 17 0 8 8 3 21 -13z m-807 -41 c3 -5 -1
-9 -9 -9 -8 0 -12 4 -9 9 3 4 7 8 9 8 2 0 6 -4 9 -8z m496 -76 c0 -2 -8 -10
-17 -17 -16 -13 -17 -12 -4 4 13 16 21 21 21 13z m-320 -160 c0 -2 -8 -10 -17
-17 -16 -13 -17 -12 -4 4 13 16 21 21 21 13z m1331 -23 c13 -16 12 -17 -3 -4
-17 13 -22 21 -14 21 2 0 10 -8 17 -17z m-130 -10 c13 -16 12 -17 -3 -4 -10 7
-18 15 -18 17 0 8 8 3 21 -13z m-881 -47 c0 -2 -8 -10 -17 -17 -16 -13 -17
-12 -4 4 13 16 21 21 21 13z m-1349 -103 c13 -16 12 -17 -3 -4 -10 7 -18 15
-18 17 0 8 8 3 21 -13z m1550 -10 c13 -16 12 -17 -3 -4 -10 7 -18 15 -18 17 0
8 8 3 21 -13z m-96 -41 c-3 -3 -11 0 -18 7 -9 10 -8 11 6 5 10 -3 15 -9 12
-12z m-598 -7 c0 -8 -4 -12 -9 -9 -5 3 -6 10 -3 15 9 13 12 11 12 -6z m160 0
c0 -8 -4 -12 -9 -9 -5 3 -6 10 -3 15 9 13 12 11 12 -6z m216 -260 c-3 -9 -8
-14 -10 -11 -3 3 -2 9 2 15 9 16 15 13 8 -4z m-372 -82 c13 -16 12 -17 -3 -4
-17 13 -22 21 -14 21 2 0 10 -8 17 -17z"/>
</g>
</svg>
