<?xml version="1.0" encoding="utf-8"?>
<!-- Generator: Adobe Illustrator 23.0.1, SVG Export Plug-In . SVG Version: 6.00 Build 0)  -->
<svg version="1.1" id="Draw_Layer_xA0_Image_1_" xmlns="http://www.w3.org/2000/svg" xmlns:xlink="http://www.w3.org/1999/xlink"
	 x="0px" y="0px" viewBox="0 0 1634 1632" style="enable-background:new 0 0 1634 1632;" xml:space="preserve">
<style type="text/css">
	.st0{fill:#FFFFFF;}
	.st1{fill:none;stroke:#FFFFFF;stroke-miterlimit:10;}
</style>
<g>
	<path class="st0" d="M426,512c0-92.33,0-184.67,0-277c261.33,0,522.67,0,784,0c0,427.33,0,854.67,0,1282c-142.33,0-284.67,0-427,0
		c1.43-0.36,2.86-0.77,4.3-1.08c22.77-4.85,41.69-14.8,50.75-38.03c0.45-1.16,2.63-2.42,3.95-2.37c23.84,0.95,47.57,0.7,71.3-2.58
		c11.17-1.54,19.76-6.07,26.58-14.83c5.5-7.06,7.72-15.27,7.92-23.77c0.54-22.97,0.4-45.95,0.66-68.92
		c0.02-1.33,0.86-3.25,1.92-3.87c7.36-4.3,10.76-11.09,12.59-18.98c3.52-15.23,1.68-30.55,0.29-45.76
		c-0.77-8.4-5.88-12.09-14.41-11.99c-4.07,0.05-8.14,0.71-12.53,1.12c3.25-18.71,9.7-36.53,7.15-55.31
		c0.34-0.27,0.45-0.43,0.59-0.46c1.63-0.34,3.25-0.74,4.89-0.99c12.55-1.84,20.44-9.22,22.71-21.36
		c2.81-15.03,4.65-30.26,6.44-45.46c0.81-6.86-3.4-11.43-10.39-12.09c-3.09-0.29-6.37-0.06-9.38,0.68
		c-4.56,1.13-8.96,2.91-13.63,4.48c0.08-0.85,0.12-1.33,0.18-1.8c1.05-9.24,3.03-18.49,2.88-27.71c-0.15-9.18-0.95-18.91-4.25-27.29
		c-2.46-6.24-0.54-10.56,0.85-15.65c1.14-4.17,2.78-8.2,3.9-12.37c8.39-31.28,20.65-60.77,39.74-87.17
		c1.54-2.13,2.45-4.72,3.71-7.06c6.39-11.85,12.64-23.78,19.26-35.5c3.43-6.06,7.36-11.86,11.35-17.58
		c4.95-7.08,10.31-13.87,15.28-20.92c9.09-12.89,18.02-25.89,27.02-38.83c12.04-17.31,25.41-33.59,35.49-52.39
		c10.04-18.72,22.54-36.11,33.81-54.18c4.2-6.74,8.71-13.43,11.8-20.69c9.73-22.92,18.55-46.22,28.29-69.13
		c8.68-20.4,16.93-40.79,20.78-62.84c1.99-11.41,7.05-22.3,8.86-33.72c2.61-16.41,4.15-33.06,4.93-49.66
		c0.53-11.38,0.7-23.28-1.99-34.21c-5.9-24.03-13.58-47.64-20.86-71.32c-1.34-4.37-3.98-8.41-6.42-12.36
		c-19.04-30.96-46.93-53.49-74.53-75.89c-18.29-14.84-38.75-27.04-58.45-40.1c-14.9-9.87-30.54-18.61-48.08-22.7
		c-18.45-4.3-37.06-8.14-55.77-11.14c-26.28-4.22-52.7-7.63-79.1-11.08c-13.5-1.77-27.05-3.44-40.63-4.16
		c-20.96-1.11-41.96-1.76-62.94-1.87c-18.82-0.1-37.84-0.78-56.41,1.63c-30.43,3.95-59.73,13.22-88.22,24.67
		c-4.41,1.77-8.67,4.39-12.38,7.38c-10.38,8.35-20.36,17.19-30.65,25.65c-6.29,5.17-12.67,10.27-19.35,14.9
		c-8.48,5.88-17.39,11.13-25.98,16.86c-20.25,13.52-40.83,26.8-53.21,48.82c-9.13,16.23-18.88,32.25-26.39,49.23
		c-7.84,17.72-14.77,36.02-16.88,55.67C429.23,491.31,427.47,501.64,426,512z"/>
	<path d="M426,512c1.47-10.36,3.23-20.69,4.35-31.09c2.11-19.65,9.04-37.95,16.88-55.67c7.51-16.98,17.26-33,26.39-49.23
		c12.38-22.02,32.96-35.3,53.21-48.82c8.58-5.73,17.5-10.98,25.98-16.86c6.68-4.63,13.06-9.73,19.35-14.9
		c10.29-8.46,20.27-17.3,30.65-25.65c3.72-2.99,7.97-5.61,12.38-7.38c28.49-11.45,57.79-20.72,88.22-24.67
		c18.57-2.41,37.59-1.72,56.41-1.63c20.98,0.11,41.98,0.76,62.94,1.87c13.58,0.72,27.13,2.39,40.63,4.16
		c26.4,3.45,52.82,6.87,79.1,11.08c18.71,3,37.31,6.83,55.77,11.14c17.54,4.09,33.18,12.84,48.08,22.7
		c19.71,13.05,40.16,25.26,58.45,40.1c27.6,22.4,55.49,44.93,74.53,75.89c2.43,3.95,5.07,7.99,6.42,12.36
		c7.28,23.68,14.96,47.28,20.86,71.32c2.68,10.93,2.52,22.83,1.99,34.21c-0.78,16.6-2.32,33.25-4.93,49.66
		c-1.81,11.42-6.87,22.31-8.86,33.72c-3.85,22.05-12.1,42.44-20.78,62.84c-9.74,22.91-18.56,46.21-28.29,69.13
		c-3.08,7.26-7.59,13.95-11.8,20.69c-11.27,18.07-23.77,35.46-33.81,54.18c-10.08,18.8-23.45,35.08-35.49,52.39
		c-9,12.95-17.93,25.94-27.02,38.83c-4.98,7.06-10.34,13.85-15.28,20.92c-3.99,5.72-7.93,11.51-11.35,17.58
		c-6.62,11.72-12.87,23.65-19.26,35.5c-1.26,2.34-2.17,4.92-3.71,7.06c-19.09,26.4-31.36,55.89-39.74,87.17
		c-1.12,4.17-2.76,8.2-3.9,12.37c-1.39,5.09-3.31,9.41-0.85,15.65c3.31,8.39,4.11,18.11,4.25,27.29c0.15,9.22-1.83,18.47-2.88,27.71
		c-0.05,0.48-0.09,0.95-0.18,1.8c4.67-1.57,9.07-3.35,13.63-4.48c3.01-0.74,6.29-0.97,9.38-0.68c6.99,0.66,11.2,5.23,10.39,12.09
		c-1.8,15.2-3.63,30.43-6.44,45.46c-2.27,12.13-10.16,19.52-22.71,21.36c-1.64,0.24-3.27,0.64-4.89,0.99
		c-0.14,0.03-0.26,0.19-0.59,0.46c2.55,18.78-3.91,36.6-7.15,55.31c4.39-0.41,8.46-1.07,12.53-1.12c8.53-0.1,13.64,3.6,14.41,11.99
		c1.39,15.22,3.23,30.54-0.29,45.76c-1.82,7.89-5.23,14.68-12.59,18.98c-1.06,0.62-1.91,2.54-1.92,3.87
		c-0.26,22.97-0.12,45.96-0.66,68.92c-0.2,8.5-2.42,16.72-7.92,23.77c-6.82,8.76-15.41,13.29-26.58,14.83
		c-23.73,3.28-47.46,3.54-71.3,2.58c-1.32-0.05-3.5,1.2-3.95,2.37c-9.06,23.23-27.98,33.17-50.75,38.03
		c-1.45,0.31-2.87,0.72-4.3,1.08c-4,0-8,0-12,0c-4.94-1.38-10.02-2.37-14.77-4.23c-10.19-3.99-16.35-11.23-16.48-22.66
		c-0.06-4.97-0.01-9.94-0.01-15.43c-3.9-0.23-7.51-0.54-11.13-0.64c-23.52-0.62-46.95,0.14-70.28,3.52
		c-14.89,2.16-20.46-3.33-19.49-18.21c0.45-6.95,0.8-13.91,1.21-21.13c-5.87,0.97-11.22,2.2-16.64,2.66
		c-10.56,0.9-16.31-2.82-17.3-13.35c-1.43-15.2-1.45-30.55-1.71-45.85c-0.07-4.29,2.55-7.53,6.83-8.93
		c5.84-1.91,11.63-4.18,17.62-5.41c3.81-0.78,4.73-2.52,5.07-5.91c0.49-4.95,1.59-9.84,2.25-14.78c1.52-11.49,2.92-22.99,4.48-35.3
		c-2.77,0.63-4.33,1.03-5.91,1.33c-6.66,1.28-10.55-0.84-12.63-7.39c-1.35-4.26-2.56-8.66-3.08-13.08
		c-2.72-22.97,6.25-42.68,17.7-61.6c1.24-2.05,3.57-3.4,5.13-5.3c1.29-1.58,2.81-3.37,3.17-5.26c2.75-14.55,5.58-29.1,7.72-43.75
		c1.97-13.49,4.01-27.1,0.39-40.68c-0.33-1.23-0.63-3.01-1.5-3.45c-4.35-2.2-5.32-6.19-5.97-10.36c-1.23-7.89-2.82-15.77-3.42-23.71
		c-2.55-33.7-4.81-67.43-7.14-101.15c-1.74-25.28-6.84-49.68-17.47-72.88c-7.2-15.71-14.45-31.5-20.12-47.79
		c-9.38-26.96-23.97-51.16-37.81-75.8c-1.7-3.02-4-5.77-6.37-8.32c-24.96-26.91-42.03-59.06-59.61-90.76
		c-13.71-24.72-26.35-50.07-38.66-75.52c-12.85-26.56-23.58-53.98-27.47-83.55c-0.71-5.42-1.06-10.88-1.57-16.33
		C426,521.33,426,516.67,426,512z M918.66,526.02c-3.07-1.92-5.5-3.68-8.13-5.04c-8.23-4.27-16.27-9.07-24.88-12.39
		c-10.21-3.94-15.17-13.18-22.48-20.01c-0.91-0.85-1.07-3.75-0.31-4.81c0.77-1.09,3.31-1.8,4.67-1.38c2.12,0.66,4.11,2.19,5.78,3.76
		c9.79,9.23,21.38,15.74,32.98,22.29c6.77,3.83,13.49,7.87,19.75,12.47c14.33,10.52,27.83,22.11,43.92,30.22
		c6.62,3.33,12.07,9.06,17.79,14.01c1.28,1.11,1.44,3.51,2.11,5.32c-2.13,0.49-4.26,1.38-6.37,1.35c-1.49-0.03-3.18-1.04-4.39-2.07
		c-7.17-6.14-16.37-8.92-23.36-15.84c-7.43-7.35-17.07-12.47-25.75-18.56c-1.07-0.75-2.17-1.44-4.16-2.74
		c-1.46,4.76-1.83,9.62-4.24,13.05c-5,7.11-0.39,11.86,2.37,17.63c4.64,9.72,8.68,19.74,12.75,29.73c1.84,4.53,4.22,7.21,9.62,5.77
		c3.03-0.81,6.26-0.85,9.37-1.41c12.17-2.19,23.87,0.93,34.35,5.96c9.09,4.37,17.16,11.41,24.7,18.33
		c13.38,12.29,19.76,27.88,17.59,46.21c-0.91,7.69-3.08,15.24-4.58,22.87c-2.68,13.61-7.64,25.28-22.08,30.69
		c-8.05,3.02-15.32,8.33-23.49,10.79c-7.12,2.15-15.02,2.41-22.56,2.3c-7.6-0.11-15.18-1.68-22.75-2.67
		c-14.93-1.96-29.3-5.14-39.05-18.23c-0.24-0.32-0.87-0.35-2.11-0.81c-0.69,4.96-1.21,9.67-2.01,14.33
		c-2.7,15.73-5.93,31.39-8.16,47.19c-4.51,31.97-8.57,64.01-12.68,96.03c-3.35,26.09-6.51,52.2-9.75,78.3
		c-3.09,24.94-7.19,49.8-8.99,74.83c-1.74,24.23-1.1,48.63-1.54,72.95c-0.16,8.79-0.27,9.31,8.54,10.03
		c21.88,1.77,43.79,3.01,65.26,4.43c0.2-3.68-0.18-6.21,0.54-8.37c4.85-14.68,10.07-29.24,14.89-43.93
		c5.45-16.63,11.1-33.16,19.96-48.35c9.54-16.36,20.09-32.18,28.76-48.97c12.96-25.08,29.75-47.63,44.87-71.27
		c3.75-5.86,8.6-11.01,12.62-16.71c10.64-15.07,21.13-30.26,31.63-45.43c2.74-3.95,5.34-8,7.92-12.06
		c13.49-21.18,26.99-42.34,40.4-63.57c3.27-5.18,6.74-10.34,9.2-15.91c9.57-21.73,18.52-43.73,28.16-65.42
		c9.88-22.23,19.47-44.42,23.6-68.7c1.99-11.74,7.22-22.94,9.07-34.68c2.59-16.41,3.52-33.09,4.95-49.67
		c1.14-13.26-0.6-26.23-4.53-38.95c-4.56-14.78-9.63-29.45-13.27-44.46c-4.92-20.31-15.61-37.24-29.81-51.73
		c-16.29-16.61-33.89-31.93-50.93-47.8c-0.6-0.56-1.32-1.01-2.01-1.47c-19.25-12.85-38.48-25.72-57.75-38.52
		c-18.9-12.56-39.09-22.29-61.67-25.95c-36.3-5.88-72.66-11.31-109-16.94c-10.69-1.66-21.34-4.53-32.05-4.78
		c-36.3-0.87-72.62-0.61-108.92-1.19c-21.87-0.35-43.05,3.22-64.02,8.98c-28.46,7.83-57.07,15.24-78.74,37.41
		c-4.19,4.28-8.65,8.34-13.27,12.14c-5.9,4.85-11.89,9.64-18.21,13.93c-17.49,11.88-35.25,23.37-52.7,35.31
		c-4.05,2.78-7.64,6.46-10.83,10.23c-12.45,14.71-21.12,31.82-30.79,48.36c-13.38,22.88-22.03,47.11-26.14,73.25
		c-3.1,19.72-4.74,39.34-1.8,59.16c4.09,27.63,13.1,53.88,26.52,78.08c22.66,40.87,42.1,83.59,68.62,122.29
		c7.14,10.42,13.97,21.19,22.21,30.71c20.87,24.1,35.01,52.23,48.49,80.57c10.91,22.94,19.86,46.85,28.87,70.65
		c4.8,12.69,9.65,25.81,11.4,39.14c5.24,39.94,9.68,80.02,10.4,120.39c0.12,6.87,1.31,13.72,2.03,20.76
		c22.4-1.88,44.01-3.7,65.62-5.51c-0.57-5.28-1.38-10.23-1.6-15.2c-1.08-25.3-1.81-50.62-3.04-75.91
		c-1.06-21.79-2.28-43.59-4.09-65.33c-1.39-16.74-5.49-33.4-5.47-50.09c0.08-50.42-5.49-100.43-9.12-150.58
		c-0.66-9.17-3.08-18.21-4.59-26.76c-7.3-1.29-14.62-2.64-21.96-3.86c-21.41-3.55-52.38-25.55-55.31-51.86
		c-0.75-6.74-3.11-13.3-4.11-20.03c-0.75-5.05-0.89-10.27-0.62-15.37c0.65-12.28,7.03-22.75,11.71-33.67
		c1.53-3.56,5.06-6.72,8.41-8.95c6.33-4.21,13.11-7.79,19.86-11.32c13.75-7.18,28.36-12.2,43.93-11.44
		c9.56,0.47,19.65-2.52,28.81,2.96c2.49,1.49,4.57,0.35,6.25-2.15c4.64-6.91,9.41-13.75,14.35-20.45c2.15-2.92,4.94-5.36,7.22-8.2
		c1.02-1.27,2.13-3.04,2.01-4.48c-0.08-1.05-1.97-2.42-3.3-2.82c-5.9-1.76-11.92-3.09-17.83-4.82c-3.44-1.01-6.89-2.57-6.54-7
		c0.35-4.42,3.91-5.3,7.54-5.84c12.35-1.83,24.67-3.94,37.06-5.41c5.57-0.66,11.31-0.21,16.95,0.05c3.2,0.14,6.59,1.72,6.08,5.18
		c-0.34,2.32-3.11,4.56-5.27,6.22c-1.29,1-3.48,0.89-5.28,1.19c-7.31,1.19-14.62,2.34-21.18,3.39c0.87,4.68,1.65,8.89,2.22,11.96
		c7.96,3.16,15.57,6.91,23.6,9.19c11.77,3.34,23.71,6.76,35.81,8.06c11.67,1.25,23.62-0.28,35.44-0.35
		c15.09-0.1,30.32,1.27,44.84-4.2c2.9-1.09,5.94-2.95,7.82-5.33C914.14,535.06,916.01,530.7,918.66,526.02z M705.22,718.29
		c0.6,7.05,1.16,14.12,1.8,21.19c1.95,21.54,4.21,43.06,5.83,64.62c1.4,18.6,2.06,37.25,3.08,55.87c0.92,16.63,1.44,33.3,2.99,49.87
		c1.43,15.4,4.79,30.64,5.87,46.05c2.02,28.74,3.07,57.55,4.41,86.34c0.92,19.74,1.66,39.49,2.55,60.78
		c37.48-6.03,73.64-1.06,110.03,2.29c0.23-1.6,0.5-2.56,0.49-3.52c-0.21-18-0.81-36-0.59-53.99c0.21-16.97,0.37-34.04,2.19-50.88
		c2.73-25.3,6.88-50.46,10.44-75.67c6.93-48.95,13.51-97.94,20.98-146.81c3.13-20.48,8.18-40.67,12.24-61.02
		c0.47-2.35,1.18-5.46,0.11-7.2c-8.78-14.34-10.38-30.38-11.64-46.52c-1.1-14.14,4.56-25.6,15.49-33.96
		c10.51-8.04,20.59-17.04,33.77-20.9c1.38-0.41,2.58-1.42,4.07-2.27c-0.68-1.51-1.27-2.83-1.94-4.3c-4.42,1.22-7.74,0.99-9.57-4.17
		c-2.75-7.76-6.23-15.26-9.34-22.73c-7.57,4.5-14.65,7.96-20.9,12.56c-15.34,11.3-29.29,24.15-40.88,39.4
		c-9.87,12.99-19.86,25.89-29.66,38.93c-1.23,1.64-2.4,3.93-2.3,5.86c0.4,7.9,1.31,15.78,2.1,24.36c4.16-0.6,7.26-0.87,10.29-1.53
		c2.75-0.6,5.16-0.62,5.97,2.57c0.82,3.19-1.39,4.91-4.02,5.18c-9.43,0.94-18.89,1.68-28.35,2.09c-1.31,0.06-2.72-2.15-4.08-3.31
		c1.3-1.24,2.4-3.11,3.93-3.59c2.62-0.83,5.51-0.79,7.54-1.03c0-8.79,0-17.2,0-26.67c-11.94-1.06-23.62-2.09-35.04-3.1
		C762.53,696.39,738.19,711.7,705.22,718.29z M768.55,547.15c-0.35,0.54-0.71,1.09-1.06,1.63c13.49,29.8,26.98,59.6,40.63,89.78
		c1.06-8.19,2.02-15.61,2.99-23.13c-0.01-0.01-0.3-0.21-0.61-0.28c-2.77-0.62-6.86,0.02-6.37-4.45c0.49-4.49,4.56-3.61,7.57-3.53
		c5.83,0.15,11.66,0.41,17.46,0.99c3.02,0.3,5.95,1.39,9.69,2.32c15.1-17.04,30.27-35.5,50.27-49.3c-9.63-0.5-19.07-0.75-28.48-0.45
		c-26.23,0.84-52.2,0.52-76.83-10.66C779.23,547.98,773.67,548.06,768.55,547.15z M803.1,657.38c-10.41-26.6-20.48-52.4-30.62-78.17
		c-3.89-9.89-7.95-19.72-12.01-29.54c-1.12-2.72-2.97-5.1-5.56-1.58c-5.5,7.48-10.65,15.22-16.33,23.4
		c30.05,20.14,40.61,48.37,35.03,83.17C783.8,655.6,793.01,656.45,803.1,657.38z M753.71,660.65c-18.55-3.26-36.88-6.48-55.21-9.7
		c-0.36,0.5-0.73,1-1.09,1.5c11.28,11.14,22.57,22.28,33.83,33.45c1.83,1.82,3.32,1.62,5.64,0.45
		C747.21,681.15,752.15,672.51,753.71,660.65z M749.21,605.81c-18.51,10.8-35.55,20.74-52.59,30.68c0.23,0.49,0.45,0.97,0.68,1.46
		c19.98-0.01,39.84-1.27,60.88-5.56C755.22,623.64,752.47,615.48,749.21,605.81z M1000.24,704.84c8.7-6.5,14.12-13.83,16.07-23.68
		c1.5-7.6,1.91-8.24-5.56-10.18c-12.31-3.2-24.89-5.41-37.36-8.01c-0.2-0.04-0.49,0.31-1.07,0.7
		C981.53,677.25,990.72,690.81,1000.24,704.84z M955.58,663.66c-19.51,10.53-37.68,20.33-56.97,30.74
		c7.45,5.97,14.73,11.81,22.02,17.66C933.65,696.58,947.23,682.87,955.58,663.66z M895.79,653.09c0,11.67,0,22.16,0,34.32
		c17.81-8.62,34.15-16.54,50.49-24.45c-0.08-0.52-0.17-1.03-0.25-1.55C929.41,658.66,912.79,655.9,895.79,653.09z M643.6,597.43
		c-12.26,6.19-15.11,16.35-17.24,25.87c10.81,3.64,20.88,7.23,31.07,10.39c5.18,1.6,10.6,2.44,15.9,3.63
		c0.36-0.43,0.72-0.87,1.08-1.3C664.13,623.12,653.84,610.24,643.6,597.43z M995.18,710.93c-9.26-14.88-17.57-28.22-25.87-41.56
		c-0.64,0.14-1.29,0.27-1.93,0.41c0,16.57,0,33.15,0,50.58C976.15,717.38,985.42,714.24,995.18,710.93z M962.05,673.89
		c-0.43,0.03-0.85,0.06-1.28,0.09c-10.4,14.01-20.79,28.02-31.29,42.18c7.71,4.37,15.4,6.74,23.77,5.75
		c1.43-0.17,3.66-1.95,3.81-3.2C958.91,703.79,960.44,688.84,962.05,673.89z M954.95,657.64c-1.69-1.82-2.39-2.93-3.39-3.61
		c-12.05-8.29-24.13-16.52-36.23-24.73c-0.47-0.32-1.25-0.39-1.84-0.28c-6.25,1.11-14.2,9.97-15.1,16.66
		C916.83,649.58,935.27,653.48,954.95,657.64z M676.5,652.22c-0.18-0.46-0.36-0.92-0.53-1.38c-13.54,4.43-27.08,8.86-40.97,13.41
		c4.43,7.45,5.25,16.25,12.02,21.53C657.1,674.29,666.8,663.26,676.5,652.22z M1015.34,641.16c-7.79,3.06-13.91,5.14-19.74,7.85
		c-5.9,2.73-11.52,6.08-18.19,9.66c14.27,2.62,27.37,5.03,41.66,7.65C1017.91,658.49,1016.7,650.32,1015.34,641.16z M726.7,692.55
		c-11.08-12.22-21.19-23.37-32.17-35.48c2.72,14.26,5.24,27.48,7.93,41.61C710.75,696.58,718.69,694.57,726.7,692.55z M692.3,585.03
		c-7.88,0-15.36,0-22.83,0c4.66,14.54,9.14,28.53,13.62,42.53c0.35-0.12,0.69-0.25,1.04-0.37
		C686.83,613.28,689.52,599.36,692.3,585.03z M703.74,628.3c13.79-8.37,27.84-16.91,43.52-26.43c-7.05-4.51-12.89-8.24-18.55-11.85
		C720.11,603.2,711.83,615.9,703.74,628.3z M684.15,653.81c-0.49-0.3-0.99-0.59-1.48-0.89c-9.87,11.95-19.74,23.9-30.01,36.34
		c5.89,2.97,10.69,5.39,16.43,8.29C674.26,682.52,679.21,668.16,684.15,653.81z M715.13,585.97c-2.3-0.43-4.21-0.86-6.16-1.14
		c-11.3-1.59-11.44-1.6-13.68,9.2c-2.29,11.06-4.28,22.19-6.4,33.29c0.39,0.1,0.79,0.2,1.18,0.3
		C698.35,613.89,706.61,600.14,715.13,585.97z M675.32,698.95c4.89,0.73,9.63,1.69,14.42,2.01c1.31,0.09,4.03-1.89,3.94-2.65
		c-1.54-12.49-3.43-24.93-5.24-37.39c-0.37,0.02-0.75,0.03-1.12,0.05C683.37,673.44,679.43,685.92,675.32,698.95z M967.39,614.32
		c-1.06,12.44-2.03,23.92-3.01,35.39c0.45,0.11,0.89,0.21,1.34,0.32c7.3-9.72,14.61-19.44,22.52-29.96
		C981.66,618.25,975.24,616.48,967.39,614.32z M626.64,642.96c1.36,4.87,2.39,8.15,3.18,11.48c1.06,4.49,3.46,5.82,7.92,4.3
		c10.52-3.58,21.12-6.92,31.69-10.36c0.03-0.47,0.05-0.95,0.08-1.42C655.59,645.65,641.68,644.36,626.64,642.96z M952.71,648.38
		c0.43-0.19,0.86-0.38,1.28-0.57c-4.7-9.22-9.38-18.46-14.15-27.64c-0.27-0.51-1.48-1-2.05-0.82c-5.77,1.74-11.49,3.61-18.39,5.82
		C931.3,633.46,942,640.92,952.71,648.38z M704.29,643.55c16.77,2.63,34.15,5.35,52.01,8.15c0.27-4.43,0.51-8.33,0.76-12.31
		C738.91,640.82,721.32,642.21,704.29,643.55z M672.38,625.08c-3.79-11.74-7.96-24.7-12.33-38.25c-4.94,2.32-9.04,4.24-12.93,6.07
		C656.09,604.33,664.65,615.23,672.38,625.08z M1007.29,630.68c-2.89-1.89-5.62-3.9-8.57-5.5c-1.04-0.57-3.22-0.74-3.85-0.09
		c-6.95,7.2-13.69,14.6-20.49,21.94c0.32,0.32,0.63,0.65,0.95,0.97C985.7,642.37,996.08,636.75,1007.29,630.68z M817.76,615.68
		c-1.46,8.58-5.78,16.74-1.31,25.67c5.17-8.26,10.2-16.32,15.63-25C827.03,616.12,822.44,615.9,817.76,615.68z M626.19,629.89
		c-1.44,7.27,1.29,8.7,6.46,8.75c7.3,0.08,14.61,0.81,21.89,1.48c5.06,0.47,10.09,1.3,15.68,2.04c-7.52-2.35-14.37-4.69-21.34-6.63
		C641.46,633.47,633.93,631.8,626.19,629.89z M949.84,615.4c3.73,7.18,7.04,13.55,10.36,19.92c0.27-0.12,0.55-0.24,0.82-0.37
		c0-6.77,0-13.53,0-20.92C957.9,614.42,954.27,614.86,949.84,615.4z"/>
	<path class="st1" d="M426,526c0.51,5.44,0.86,10.91,1.57,16.33c3.89,29.57,14.62,56.98,27.47,83.55
		c12.31,25.46,24.95,50.8,38.66,75.52c17.58,31.69,34.65,63.85,59.61,90.76c2.37,2.55,4.67,5.3,6.37,8.32
		c13.85,24.64,28.43,48.84,37.81,75.8c5.67,16.29,12.92,32.08,20.12,47.79c10.63,23.2,15.73,47.61,17.47,72.88
		c2.33,33.72,4.59,67.44,7.14,101.15c0.6,7.95,2.19,15.82,3.42,23.71c0.65,4.17,1.62,8.15,5.97,10.36c0.87,0.44,1.17,2.22,1.5,3.45
		c3.62,13.59,1.58,27.19-0.39,40.68c-2.14,14.65-4.97,29.2-7.72,43.75c-0.36,1.9-1.87,3.68-3.17,5.26c-1.55,1.9-3.89,3.25-5.13,5.3
		c-11.46,18.92-20.43,38.64-17.7,61.6c0.52,4.42,1.73,8.82,3.08,13.08c2.08,6.55,5.97,8.67,12.63,7.39c1.58-0.3,3.14-0.7,5.91-1.33
		c-1.55,12.31-2.96,23.81-4.48,35.3c-0.65,4.94-1.75,9.83-2.25,14.78c-0.34,3.39-1.26,5.13-5.07,5.91
		c-5.99,1.23-11.77,3.5-17.62,5.41c-4.28,1.4-6.9,4.64-6.83,8.93c0.26,15.29,0.27,30.64,1.71,45.85
		c0.99,10.53,6.74,14.25,17.3,13.35c5.42-0.46,10.77-1.7,16.64-2.66c-0.41,7.22-0.76,14.18-1.21,21.13
		c-0.96,14.88,4.6,20.37,19.49,18.21c23.34-3.38,46.77-4.14,70.28-3.52c3.62,0.1,7.24,0.41,11.13,0.64c0,5.49-0.05,10.46,0.01,15.43
		c0.13,11.43,6.29,18.68,16.48,22.66c4.75,1.86,9.84,2.85,14.77,4.23c-114.96,0-229.91,0-345,0C426,1186.67,426,856.33,426,526z"/>
	<path class="st0" d="M918.66,526.02c-2.65,4.68-4.53,9.05-7.37,12.65c-1.87,2.38-4.92,4.23-7.82,5.33
		c-14.53,5.47-29.76,4.11-44.84,4.2c-11.83,0.08-23.78,1.6-35.44,0.35c-12.09-1.3-24.04-4.71-35.81-8.06
		c-8.03-2.28-15.64-6.03-23.6-9.19c-0.57-3.07-1.35-7.27-2.22-11.96c6.56-1.05,13.87-2.2,21.18-3.39c1.8-0.29,3.99-0.18,5.28-1.19
		c2.15-1.67,4.93-3.91,5.27-6.22c0.51-3.46-2.89-5.04-6.08-5.18c-5.65-0.25-11.38-0.71-16.95-0.05
		c-12.39,1.47-24.71,3.58-37.06,5.41c-3.63,0.54-7.19,1.41-7.54,5.84c-0.35,4.43,3.1,5.99,6.54,7c5.91,1.73,11.93,3.06,17.83,4.82
		c1.33,0.4,3.22,1.77,3.3,2.82c0.12,1.44-0.99,3.21-2.01,4.48c-2.28,2.84-5.07,5.28-7.22,8.2c-4.94,6.7-9.71,13.54-14.35,20.45
		c-1.68,2.5-3.76,3.64-6.25,2.15c-9.16-5.49-19.25-2.49-28.81-2.96c-15.58-0.76-30.18,4.26-43.93,11.44
		c-6.76,3.53-13.53,7.11-19.86,11.32c-3.35,2.23-6.89,5.39-8.41,8.95c-4.68,10.92-11.06,21.39-11.71,33.67
		c-0.27,5.11-0.13,10.32,0.62,15.37c1,6.73,3.36,13.29,4.11,20.03c2.92,26.31,33.9,48.3,55.31,51.86
		c7.34,1.22,14.66,2.57,21.96,3.86c1.51,8.55,3.93,17.6,4.59,26.76c3.63,50.15,9.2,100.16,9.12,150.58
		c-0.03,16.69,4.07,33.35,5.47,50.09c1.81,21.74,3.03,43.54,4.09,65.33c1.23,25.29,1.96,50.61,3.04,75.91
		c0.21,4.97,1.03,9.92,1.6,15.2c-21.61,1.82-43.23,3.63-65.62,5.51c-0.72-7.04-1.91-13.89-2.03-20.76
		c-0.73-40.37-5.16-80.45-10.4-120.39c-1.75-13.33-6.6-26.44-11.4-39.14c-9.01-23.79-17.96-47.7-28.87-70.65
		c-13.48-28.34-27.62-56.47-48.49-80.57c-8.24-9.51-15.07-20.28-22.21-30.71c-26.52-38.7-45.95-81.41-68.62-122.29
		c-13.42-24.2-22.43-50.45-26.52-78.08c-2.94-19.82-1.3-39.45,1.8-59.16c4.12-26.15,12.76-50.37,26.14-73.25
		c9.67-16.54,18.35-33.65,30.79-48.36c3.19-3.78,6.78-7.46,10.83-10.23c17.45-11.94,35.21-23.42,52.7-35.31
		c6.31-4.29,12.31-9.08,18.21-13.93c4.63-3.81,9.09-7.86,13.27-12.14c21.67-22.16,50.28-29.58,78.74-37.41
		c20.96-5.77,42.15-9.34,64.02-8.98c36.31,0.58,72.63,0.32,108.92,1.19c10.72,0.26,21.37,3.13,32.05,4.78
		c36.34,5.63,72.7,11.06,109,16.94c22.57,3.65,42.76,13.39,61.67,25.95c19.27,12.81,38.5,25.68,57.75,38.52
		c0.69,0.46,1.41,0.91,2.01,1.47c17.04,15.87,34.65,31.19,50.93,47.8c14.2,14.49,24.88,31.42,29.81,51.73
		c3.64,15.01,8.71,29.68,13.27,44.46c3.92,12.72,5.66,25.69,4.53,38.95c-1.42,16.58-2.35,33.26-4.95,49.67
		c-1.86,11.74-7.08,22.94-9.07,34.68c-4.12,24.28-13.72,46.47-23.6,68.7c-9.64,21.69-18.6,43.69-28.16,65.42
		c-2.45,5.58-5.93,10.73-9.2,15.91c-13.41,21.23-26.91,42.39-40.4,63.57c-2.58,4.06-5.19,8.1-7.92,12.06
		c-10.5,15.17-20.99,30.36-31.63,45.43c-4.03,5.7-8.87,10.85-12.62,16.71c-15.12,23.65-31.92,46.19-44.87,71.27
		c-8.68,16.79-19.22,32.62-28.76,48.97c-8.86,15.19-14.51,31.72-19.96,48.35c-4.82,14.69-10.04,29.25-14.89,43.93
		c-0.71,2.16-0.34,4.68-0.54,8.37c-21.47-1.42-43.39-2.66-65.26-4.43c-8.81-0.71-8.71-1.24-8.54-10.03
		c0.45-24.32-0.2-48.72,1.54-72.95c1.8-25.03,5.89-49.89,8.99-74.83c3.24-26.1,6.4-52.21,9.75-78.3
		c4.11-32.03,8.17-64.06,12.68-96.03c2.23-15.8,5.46-31.45,8.16-47.19c0.8-4.66,1.32-9.38,2.01-14.33c1.25,0.46,1.87,0.49,2.11,0.81
		c9.75,13.09,24.12,16.27,39.05,18.23c7.58,1,15.16,2.56,22.75,2.67c7.54,0.11,15.44-0.15,22.56-2.3
		c8.17-2.46,15.43-7.78,23.49-10.79c14.44-5.41,19.41-17.08,22.08-30.69c1.5-7.63,3.67-15.17,4.58-22.87
		c2.17-18.33-4.21-33.92-17.59-46.21c-7.54-6.93-15.61-13.96-24.7-18.33c-10.47-5.03-22.17-8.15-34.35-5.96
		c-3.11,0.56-6.34,0.59-9.37,1.41c-5.4,1.45-7.78-1.24-9.62-5.77c-4.06-9.99-8.1-20.01-12.75-29.73
		c-2.75-5.77-7.37-10.52-2.37-17.63c2.41-3.43,2.78-8.29,4.24-13.05c1.99,1.31,3.1,2,4.16,2.74c8.68,6.08,18.32,11.21,25.75,18.56
		c6.99,6.91,16.19,9.7,23.36,15.84c1.21,1.03,2.9,2.05,4.39,2.07c2.12,0.04,4.25-0.85,6.37-1.35c-0.67-1.81-0.83-4.21-2.11-5.32
		c-5.72-4.95-11.17-10.68-17.79-14.01c-16.09-8.11-29.59-19.7-43.92-30.22c-6.26-4.6-12.98-8.64-19.75-12.47
		c-11.6-6.55-23.19-13.06-32.98-22.29c-1.66-1.57-3.66-3.1-5.78-3.76c-1.36-0.43-3.9,0.29-4.67,1.38c-0.75,1.06-0.6,3.95,0.31,4.81
		c7.31,6.84,12.27,16.07,22.48,20.01c8.61,3.32,16.65,8.12,24.88,12.39C913.17,522.34,915.59,524.09,918.66,526.02z"/>
	<path class="st0" d="M705.22,718.29c32.96-6.59,57.31-21.91,67.86-55.21c11.42,1.01,23.1,2.04,35.04,3.1c0,9.47,0,17.88,0,26.67
		c-2.03,0.24-4.92,0.2-7.54,1.03c-1.54,0.49-2.64,2.35-3.93,3.59c1.36,1.16,2.77,3.37,4.08,3.31c9.46-0.41,18.92-1.15,28.35-2.09
		c2.63-0.26,4.83-1.99,4.02-5.18c-0.82-3.19-3.22-3.17-5.97-2.57c-3.02,0.66-6.13,0.93-10.29,1.53c-0.79-8.58-1.69-16.46-2.1-24.36
		c-0.1-1.92,1.07-4.22,2.3-5.86c9.8-13.04,19.79-25.94,29.66-38.93c11.59-15.26,25.55-28.1,40.88-39.4
		c6.24-4.6,13.32-8.06,20.9-12.56c3.11,7.47,6.59,14.97,9.34,22.73c1.83,5.15,5.15,5.39,9.57,4.17c0.66,1.47,1.26,2.79,1.94,4.3
		c-1.49,0.85-2.69,1.86-4.07,2.27c-13.18,3.87-23.26,12.87-33.77,20.9c-10.93,8.36-16.59,19.82-15.49,33.96
		c1.26,16.14,2.85,32.18,11.64,46.52c1.06,1.74,0.36,4.84-0.11,7.2c-4.06,20.35-9.11,40.54-12.24,61.02
		c-7.47,48.86-14.05,97.86-20.98,146.81c-3.57,25.21-7.71,50.36-10.44,75.67c-1.82,16.85-1.98,33.91-2.19,50.88
		c-0.22,17.99,0.38,35.99,0.59,53.99c0.01,0.96-0.26,1.92-0.49,3.52c-36.39-3.35-72.55-8.32-110.03-2.29
		c-0.89-21.29-1.63-41.04-2.55-60.78c-1.34-28.79-2.39-57.6-4.41-86.34c-1.08-15.41-4.44-30.65-5.87-46.05
		c-1.54-16.57-2.07-33.24-2.99-49.87c-1.03-18.63-1.69-37.28-3.08-55.87c-1.62-21.56-3.87-43.08-5.83-64.62
		C706.38,732.41,705.82,725.34,705.22,718.29z"/>
	<path class="st0" d="M768.55,547.15c5.12,0.92,10.68,0.84,15.27,2.92c24.63,11.18,50.6,11.5,76.83,10.66
		c9.42-0.3,18.85-0.05,28.48,0.45c-20,13.8-35.16,32.26-50.27,49.3c-3.74-0.92-6.68-2.02-9.69-2.32c-5.8-0.58-11.63-0.84-17.46-0.99
		c-3.01-0.08-7.07-0.96-7.57,3.53c-0.49,4.47,3.6,3.83,6.37,4.45c0.31,0.07,0.6,0.27,0.61,0.28c-0.97,7.52-1.93,14.93-2.99,23.13
		c-13.66-30.18-27.15-59.98-40.63-89.78C767.84,548.23,768.2,547.69,768.55,547.15z"/>
	<path class="st0" d="M803.1,657.38c-10.09-0.93-19.3-1.78-29.49-2.73c5.58-34.8-4.99-63.03-35.03-83.17
		c5.68-8.18,10.82-15.92,16.33-23.4c2.59-3.52,4.44-1.14,5.56,1.58c4.06,9.82,8.12,19.65,12.01,29.54
		C782.62,604.98,792.68,630.78,803.1,657.38z"/>
	<path class="st0" d="M753.71,660.65c-1.57,11.86-6.51,20.5-16.83,25.7c-2.32,1.17-3.81,1.36-5.64-0.45
		c-11.26-11.17-22.55-22.3-33.83-33.45c0.36-0.5,0.73-1,1.09-1.5C716.84,654.17,735.17,657.39,753.71,660.65z"/>
	<path class="st0" d="M749.21,605.81c3.26,9.67,6.01,17.84,8.96,26.59c-21.04,4.29-40.9,5.54-60.88,5.56
		c-0.23-0.49-0.45-0.97-0.68-1.46C713.66,626.55,730.7,616.6,749.21,605.81z"/>
	<path class="st0" d="M1000.24,704.84c-9.52-14.04-18.71-27.59-27.92-41.16c0.58-0.4,0.87-0.75,1.07-0.7
		c12.47,2.6,25.04,4.81,37.36,8.01c7.47,1.94,7.07,2.58,5.56,10.18C1014.36,691.01,1008.94,698.34,1000.24,704.84z"/>
	<path class="st0" d="M955.58,663.66c-8.35,19.21-21.93,32.91-34.96,48.4c-7.29-5.85-14.57-11.69-22.02-17.66
		C917.9,684,936.07,674.19,955.58,663.66z"/>
	<path class="st0" d="M895.79,653.09c17,2.82,33.62,5.57,50.24,8.32c0.08,0.52,0.17,1.03,0.25,1.55
		c-16.34,7.91-32.68,15.83-50.49,24.45C895.79,675.25,895.79,664.76,895.79,653.09z"/>
	<path class="st0" d="M643.6,597.43c10.24,12.81,20.53,25.69,30.82,38.57c-0.36,0.43-0.72,0.87-1.08,1.3
		c-5.31-1.18-10.73-2.02-15.9-3.63c-10.2-3.16-20.26-6.74-31.07-10.39C628.48,613.77,631.34,603.62,643.6,597.43z"/>
	<path class="st0" d="M995.18,710.93c-9.76,3.31-19.03,6.45-27.8,9.43c0-17.43,0-34,0-50.58c0.64-0.14,1.29-0.27,1.93-0.41
		C977.61,682.71,985.91,696.05,995.18,710.93z"/>
	<path class="st0" d="M962.05,673.89c-1.61,14.94-3.14,29.9-4.99,44.82c-0.15,1.25-2.38,3.03-3.81,3.2
		c-8.37,0.99-16.06-1.38-23.77-5.75c10.5-14.16,20.9-28.17,31.29-42.18C961.2,673.95,961.62,673.92,962.05,673.89z"/>
	<path class="st0" d="M954.95,657.64c-19.68-4.16-38.12-8.06-56.56-11.96c0.9-6.69,8.85-15.55,15.1-16.66
		c0.59-0.1,1.37-0.03,1.84,0.28c12.1,8.21,24.19,16.44,36.23,24.73C952.56,654.71,953.26,655.81,954.95,657.64z"/>
	<path class="st0" d="M676.5,652.22c-9.7,11.04-19.39,22.07-29.48,33.56c-6.77-5.28-7.59-14.08-12.02-21.53
		c13.89-4.54,27.43-8.98,40.97-13.41C676.14,651.3,676.32,651.76,676.5,652.22z"/>
	<path class="st0" d="M1015.34,641.16c1.36,9.16,2.57,17.33,3.73,25.15c-14.29-2.62-27.39-5.03-41.66-7.65
		c6.67-3.58,12.29-6.92,18.19-9.66C1001.43,646.31,1007.55,644.22,1015.34,641.16z"/>
	<path class="st0" d="M726.7,692.55c-8.01,2.02-15.96,4.03-24.24,6.12c-2.69-14.13-5.21-27.35-7.93-41.61
		C705.51,669.17,715.62,680.33,726.7,692.55z"/>
	<path class="st0" d="M692.3,585.03c-2.78,14.33-5.47,28.24-8.17,42.16c-0.35,0.12-0.69,0.25-1.04,0.37
		c-4.48-14-8.97-27.99-13.62-42.53C676.94,585.03,684.42,585.03,692.3,585.03z"/>
	<path class="st0" d="M703.74,628.3c8.09-12.4,16.37-25.1,24.97-38.28c5.66,3.61,11.49,7.34,18.55,11.85
		C731.59,611.39,717.53,619.93,703.74,628.3z"/>
	<path class="st0" d="M684.15,653.81c-4.94,14.36-9.89,28.71-15.06,43.74c-5.74-2.89-10.54-5.32-16.43-8.29
		c10.28-12.44,20.15-24.39,30.01-36.34C683.16,653.22,683.66,653.51,684.15,653.81z"/>
	<path class="st0" d="M715.13,585.97c-8.52,14.17-16.79,27.92-25.05,41.66c-0.39-0.1-0.79-0.2-1.18-0.3
		c2.12-11.1,4.11-22.23,6.4-33.29c2.24-10.81,2.37-10.79,13.68-9.2C710.92,585.11,712.84,585.54,715.13,585.97z"/>
	<path class="st0" d="M675.32,698.95c4.12-13.03,8.06-25.51,11.99-37.99c0.37-0.02,0.75-0.03,1.12-0.05
		c1.81,12.45,3.7,24.9,5.24,37.39c0.09,0.76-2.63,2.74-3.94,2.65C684.95,700.64,680.21,699.69,675.32,698.95z"/>
	<path class="st0" d="M967.39,614.32c7.84,2.16,14.26,3.94,20.85,5.75c-7.91,10.52-15.21,20.24-22.52,29.96
		c-0.45-0.11-0.89-0.21-1.34-0.32C965.36,638.23,966.33,626.76,967.39,614.32z"/>
	<path class="st0" d="M626.64,642.96c15.05,1.4,28.96,2.7,42.87,4c-0.03,0.47-0.05,0.95-0.08,1.42
		c-10.57,3.44-21.17,6.78-31.69,10.36c-4.46,1.52-6.86,0.19-7.92-4.3C629.03,651.1,628,647.83,626.64,642.96z"/>
	<path class="st0" d="M952.71,648.38c-10.7-7.46-21.41-14.92-33.31-23.21c6.9-2.21,12.62-4.08,18.39-5.82
		c0.57-0.17,1.78,0.31,2.05,0.82c4.78,9.18,9.45,18.41,14.15,27.64C953.56,648,953.14,648.19,952.71,648.38z"/>
	<path class="st0" d="M704.29,643.55c17.02-1.34,34.61-2.73,52.77-4.16c-0.25,3.98-0.49,7.88-0.76,12.31
		C738.45,648.9,721.06,646.18,704.29,643.55z"/>
	<path class="st0" d="M672.38,625.08c-7.73-9.85-16.29-20.74-25.26-32.17c3.9-1.83,7.99-3.75,12.93-6.07
		C664.42,600.37,668.59,613.33,672.38,625.08z"/>
	<path class="st0" d="M1007.29,630.68c-11.21,6.07-21.58,11.69-31.96,17.31c-0.32-0.32-0.63-0.65-0.95-0.97
		c6.8-7.34,13.54-14.74,20.49-21.94c0.62-0.65,2.81-0.47,3.85,0.09C1001.67,626.78,1004.4,628.79,1007.29,630.68z"/>
	<path class="st0" d="M817.76,615.68c4.69,0.22,9.27,0.44,14.31,0.68c-5.42,8.67-10.46,16.73-15.63,25
		C811.98,632.42,816.29,624.26,817.76,615.68z"/>
	<path class="st0" d="M626.19,629.89c7.75,1.91,15.27,3.59,22.69,5.65c6.97,1.93,13.82,4.27,21.34,6.63
		c-5.59-0.74-10.62-1.57-15.68-2.04c-7.28-0.67-14.59-1.4-21.89-1.48C627.48,638.59,624.75,637.15,626.19,629.89z"/>
	<path class="st0" d="M949.84,615.4c4.43-0.54,8.06-0.99,11.18-1.37c0,7.39,0,14.15,0,20.92c-0.27,0.12-0.55,0.24-0.82,0.37
		C956.88,628.95,953.57,622.58,949.84,615.4z"/>
</g>
</svg>
